<?xml version="1.0" standalone="no"?><!-- Generator: Gravit.io --><svg xmlns="http://www.w3.org/2000/svg" xmlns:xlink="http://www.w3.org/1999/xlink" style="isolation:isolate" viewBox="0 0 662 662" width="662" height="662"><defs><clipPath id="_clipPath_mcYqqQydamTlre1LeGYasVFK2pUVmvjJ"><rect width="662" height="662"/></clipPath></defs><g clip-path="url(#_clipPath_mcYqqQydamTlre1LeGYasVFK2pUVmvjJ)"><g id="Icon"><path d=" M 0 331 C 0 148.316 148.316 0 331 0 C 513.684 0 662 148.316 662 331 C 662 513.684 513.684 662 331 662 C 148.316 662 0 513.684 0 331 Z " fill="rgb(236,240,241)"/><path d=" M 75 331 C 75 189.71 189.71 75 331 75 C 472.29 75 587 189.71 587 331 C 587 472.29 472.29 587 331 587 C 189.71 587 75 472.29 75 331 Z " fill="none" vector-effect="non-scaling-stroke" stroke-width="100" stroke="rgb(44,62,80)" stroke-linejoin="miter" stroke-linecap="square" stroke-miterlimit="3"/><defs><filter id="YNqiJoONlhYOcotjtpOvhlchTvtG05M9" x="-200%" y="-200%" width="400%" height="400%"><feOffset xmlns="http://www.w3.org/2000/svg" in="SourceAlpha" result="offOut" dx="0" dy="0"/><feGaussianBlur xmlns="http://www.w3.org/2000/svg" in="offOut" result="blurOut" stdDeviation="2.5"/><feComponentTransfer xmlns="http://www.w3.org/2000/svg" in="blurOut" result="opacOut"><feFuncA xmlns="http://www.w3.org/2000/svg" type="table" tableValues="0 0.5"/></feComponentTransfer><feBlend xmlns="http://www.w3.org/2000/svg" in="SourceGraphic" in2="opacOut" mode="normal"/></filter></defs><g filter="url(#YNqiJoONlhYOcotjtpOvhlchTvtG05M9)"><path d="M 282.917 212.206 L 449.794 379.083 C 453.697 382.986 453.697 389.323 449.794 393.225 L 393.225 449.794 C 389.323 453.697 382.986 453.697 379.083 449.794 L 212.206 282.917 C 208.303 279.014 208.303 272.677 212.206 268.775 L 268.775 212.206 C 272.677 208.303 279.014 208.303 282.917 212.206 Z" style="stroke:none;fill:#1ABC9C;stroke-miterlimit:10;"/></g></g></g></svg>